<?xml version="1.0" encoding="iso-8859-1"?>
<!-- Generator: Adobe Illustrator 28.0.0, SVG Export Plug-In . SVG Version: 6.00 Build 0)  -->
<svg version="1.1" xmlns="http://www.w3.org/2000/svg" xmlns:xlink="http://www.w3.org/1999/xlink" x="0px" y="0px"
	 viewBox="0 0 32 32" style="enable-background:new 0 0 32 32;" xml:space="preserve">
<g id="Layer_2" style="display:none;">
	<g style="display:inline;">
		<g>
			<path d="M21.045,27.404c-1.821-1.662-2.302-4.186-1.982-6.552c0.155-1.144,0.456-2.274,0.817-3.369
				c0.186-0.564,0.394-1.121,0.665-1.65c0.135-0.263,0.28-0.506,0.455-0.746c0.093-0.128,0.73-0.684,0.159-0.573
				c-0.311-0.004-0.621-0.009-0.932-0.013c1.04,0.193,1.576,2.488,1.839,3.371c0.358,1.204,0.594,2.443,0.743,3.689
				c0.304,2.529,0.288,5.105,0.149,7.646c-0.073,1.341-0.228,2.675-0.556,3.979c-0.155,0.616-0.322,1.264-0.582,1.846
				c0.343,0.058,0.378,0.066,0.106,0.025c-0.131-0.015-0.261-0.039-0.39-0.071c-0.281-0.072-0.542-0.157-0.767-0.345
				c-0.793-0.661-1.157-2.144-1.325-3.109c-0.109-0.626-0.153-1.276-0.06-1.908c0.051-0.346,0.225-1.528,0.526-1.701
				c-0.593,0.129-1.185,0.258-1.778,0.387c0.731,0.056,1.562,0.615,2.283,0.814c0.891,0.246,1.82,0.409,2.742,0.475
				c1.698,0.121,3.496,0.006,5.106-0.576c3.136-1.134,4.399-4.566,4.45-7.688c0.018-1.11,0.014-3.388-1.232-3.907
				c-1.26-0.525-3.095,0.554-4.015,1.36c-1.29,1.13-1.848,2.777-2.353,4.365c-0.577,1.816-1.003,3.683-1.213,5.578
				c-0.221,2.003-0.222,4.033,0.123,6.023c0.301,1.734,0.768,3.72,2.691,4.223c0.649,0.17,1.454-0.027,2.034-0.34
				c0.265-0.143,0.989-0.696,0.324-0.87c-1.721-0.45-1.999-2.732-2.221-4.221c-0.282-1.89-0.272-3.822-0.029-5.716
				c0.224-1.746,0.628-3.466,1.161-5.143c0.257-0.809,0.523-1.629,0.895-2.394c0.209-0.43,0.446-0.833,0.771-1.189
				c0.299-0.327,1.211-0.686,0.314-0.5c-0.311-0.004-0.621-0.009-0.932-0.013c0.931,0.456,0.819,3.101,0.769,3.93
				c-0.087,1.443-0.499,2.897-1.187,4.169c-0.314,0.581-0.73,1.277-1.396,1.5c-0.659,0.221-1.543,0.149-2.214,0.104
				c-1.526-0.101-2.791-0.611-4.206-1.107c-5.255-1.841-5.819,8.036-1.493,9.04c2.163,0.502,4.794,0.104,5.592-2.222
				c0.897-2.615,1.008-5.414,1.04-8.154c0.033-2.801-0.115-5.641-0.859-8.356c-0.32-1.167-0.703-2.591-1.445-3.568
				c-0.734-0.966-2.095-0.743-3.111-0.373c-2.733,0.996-3.677,4.334-4.183,6.896c-0.565,2.858-0.271,5.923,1.987,7.985
				C18.943,28.999,21.602,27.912,21.045,27.404L21.045,27.404z"/>
		</g>
	</g>
	<g style="display:inline;">
		<g>
			<g>
				<path d="M32.933,28.92c0.479-0.414,0.872-0.904,1.231-1.423c0.377-0.545,0.769-1.093,1.096-1.669
					c0.298-0.526,0.49-1.117,0.668-1.693c0.197-0.637,0.307-1.282,0.342-1.947c0.029-0.557-2.849-0.166-2.898,0.776
					c-0.03,0.576-0.157,1.139-0.33,1.687c-0.176,0.558-0.363,1.13-0.652,1.641c-0.557,0.984-1.244,2.016-2.103,2.759
					c-0.139,0.12-0.176,0.323-0.036,0.451c0.166,0.151,0.558,0.153,0.751,0.141C31.697,29.6,32.402,29.38,32.933,28.92L32.933,28.92
					z"/>
			</g>
		</g>
	</g>
</g>
<g id="Layer_1">
	<path style="fill:#FFFFFF;stroke:#000000;stroke-width:0.25;stroke-miterlimit:10;" d="M15.632,7.294
		c-1.26-0.525-3.095,0.554-4.015,1.36c-0.794,0.696-1.31,1.588-1.708,2.542c-0.13-1.293-0.337-2.577-0.68-3.833
		c-0.32-1.167-0.703-2.591-1.445-3.568C7.049,2.828,5.688,3.051,4.672,3.421c-2.733,0.996-3.677,4.334-4.183,6.896
		c-0.505,2.555-0.313,5.27,1.345,7.291c-2.105,2.095-1.594,7.74,1.621,8.486c1.688,0.392,3.649,0.22,4.813-0.973
		c0.311,1.598,0.857,3.265,2.598,3.721c0.649,0.17,1.454-0.026,2.034-0.34c0.264-0.143,0.989-0.696,0.324-0.87
		c-1.721-0.45-1.999-2.732-2.221-4.221c-0.203-1.361-0.249-2.743-0.172-4.117c0.539-0.098,1.072-0.222,1.583-0.406
		c3.136-1.134,4.399-4.566,4.45-7.688C16.882,10.091,16.878,7.813,15.632,7.294z M3.213,10.718C3.368,9.574,3.669,8.444,4.03,7.349
		c0.186-0.564,0.394-1.121,0.665-1.65C4.827,5.44,4.971,5.202,5.141,4.967c0.554,0.79,0.887,2.138,1.075,2.771
		c0.358,1.204,0.594,2.443,0.743,3.689c0.253,2.106,0.278,4.243,0.201,6.367c-0.714-0.203-1.413-0.458-2.147-0.716
		C3.352,15.417,2.904,12.998,3.213,10.718z M6.077,24.923c-0.131-0.015-0.261-0.039-0.39-0.071
		c-0.281-0.072-0.542-0.157-0.767-0.345c-0.793-0.661-1.157-2.144-1.325-3.109c-0.109-0.626-0.153-1.276-0.06-1.908
		c0.024-0.162,0.076-0.506,0.154-0.845c0.3,0.135,0.598,0.268,0.877,0.345c0.819,0.226,1.67,0.372,2.518,0.447
		c-0.081,1.218-0.232,2.429-0.53,3.614c-0.155,0.616-0.322,1.264-0.582,1.846C6.314,24.956,6.349,24.964,6.077,24.923z
		 M13.951,12.388c-0.087,1.443-0.499,2.897-1.187,4.169c-0.314,0.581-0.73,1.277-1.396,1.5c-0.136,0.046-0.287,0.072-0.438,0.096
		c0.016-0.152,0.025-0.305,0.044-0.457c0.224-1.746,0.628-3.466,1.161-5.143c0.257-0.809,0.523-1.629,0.895-2.394
		c0.181-0.374,0.395-0.721,0.658-1.04C14.06,10.09,13.989,11.76,13.951,12.388z"/>
	<path style="fill:#FFFFFF;stroke:#000000;stroke-width:0.25;stroke-miterlimit:10;" d="M31.541,14.632
		c-0.307-1.606-1.48-2.627-3.062-2.907c-1.323-0.234-2.663,0.043-3.876,0.586c-0.442-0.285-0.955-0.485-1.524-0.586
		c-0.926-0.164-1.861-0.074-2.755,0.179c-0.488-0.311-2.759,0.089-2.802,0.926c-0.03,0.576-0.157,1.139-0.33,1.687
		c-0.176,0.558-0.363,1.13-0.652,1.641c-0.557,0.984-1.244,2.016-2.103,2.759c-0.139,0.12-0.176,0.323-0.036,0.451
		c0.166,0.151,0.558,0.153,0.751,0.141c0.696-0.044,1.4-0.263,1.931-0.723c0.257-0.222,0.486-0.468,0.702-0.726
		c-0.041,0.482-0.074,0.964-0.122,1.445c-0.16,1.599-0.318,3.197-0.271,4.807c0.021,0.707,0.687,1.047,1.347,0.981
		c0.556-0.056,1.613-0.459,1.592-1.188c-0.049-1.668,0.124-3.323,0.288-4.981c0.163-1.646,0.499-3.508-0.041-5.113
		c0.617-0.226,1.299-0.281,1.806-0.031c0.896,0.442,0.956,1.715,0.919,2.58c-0.111,2.599-0.582,5.173-0.508,7.781
		c0.021,0.722,0.686,1.026,1.347,0.981c0.557-0.038,1.612-0.471,1.592-1.188c-0.046-1.592,0.108-3.172,0.265-4.753
		c0.154-1.542,0.436-3.207,0.142-4.747c-0.042-0.218-0.102-0.423-0.175-0.619c0.619-0.229,1.307-0.286,1.817-0.034
		c0.896,0.442,0.956,1.715,0.919,2.58c-0.111,2.599-0.582,5.173-0.508,7.781c0.021,0.722,0.686,1.026,1.347,0.981
		c0.557-0.038,1.612-0.471,1.592-1.188c-0.046-1.592,0.108-3.172,0.265-4.753C31.553,17.836,31.835,16.171,31.541,14.632z"/>
</g>
</svg>
